<svg xmlns="http://www.w3.org/2000/svg" xmlns:xlink="http://www.w3.org/1999/xlink" width="500" zoomAndPan="magnify" viewBox="0 0 375 374.999991" height="500" preserveAspectRatio="xMidYMid meet" version="1.0"><defs><g/></defs><g fill="#5a1b5d" fill-opacity="1"><g transform="translate(95.820349, 201.002034)"><g><path d="M 13.21875 0.5625 C 10.851562 0.5625 8.816406 0.175781 7.109375 -0.59375 C 5.398438 -1.375 4.082031 -2.484375 3.15625 -3.921875 C 2.226562 -5.359375 1.765625 -7.046875 1.765625 -8.984375 L 8.0625 -8.984375 C 8.0625 -7.640625 8.519531 -6.59375 9.4375 -5.84375 C 10.363281 -5.09375 11.609375 -4.71875 13.171875 -4.71875 C 14.515625 -4.71875 15.570312 -4.976562 16.34375 -5.5 C 17.125 -6.019531 17.515625 -6.75 17.515625 -7.6875 C 17.515625 -8.6875 17.046875 -9.492188 16.109375 -10.109375 C 15.171875 -10.722656 13.707031 -11.25 11.71875 -11.6875 C 8.414062 -12.382812 5.972656 -13.441406 4.390625 -14.859375 C 2.804688 -16.285156 2.015625 -18.140625 2.015625 -20.421875 C 2.015625 -23.003906 2.953125 -25.039062 4.828125 -26.53125 C 6.710938 -28.019531 9.28125 -28.765625 12.53125 -28.765625 C 14.757812 -28.765625 16.691406 -28.378906 18.328125 -27.609375 C 19.960938 -26.847656 21.226562 -25.773438 22.125 -24.390625 C 23.03125 -23.003906 23.484375 -21.359375 23.484375 -19.453125 L 17.328125 -19.453125 C 17.328125 -20.710938 16.910156 -21.707031 16.078125 -22.4375 C 15.242188 -23.164062 14.085938 -23.53125 12.609375 -23.53125 C 11.265625 -23.53125 10.203125 -23.265625 9.421875 -22.734375 C 8.640625 -22.210938 8.25 -21.484375 8.25 -20.546875 C 8.25 -19.679688 8.675781 -18.953125 9.53125 -18.359375 C 10.394531 -17.773438 11.90625 -17.226562 14.0625 -16.71875 C 17.570312 -15.882812 20.101562 -14.769531 21.65625 -13.375 C 23.21875 -11.976562 24 -10.164062 24 -7.9375 C 24 -5.28125 23.039062 -3.195312 21.125 -1.6875 C 19.207031 -0.1875 16.570312 0.5625 13.21875 0.5625 Z M 13.21875 0.5625 "/></g></g></g><g fill="#5a1b5d" fill-opacity="1"><g transform="translate(118.083619, 201.002034)"><g><path d="M 3.0625 0 L 3.0625 -29.8125 L 9.1875 -29.8125 L 9.1875 -13.53125 L 10.75 -13.53125 C 12.039062 -13.53125 13.015625 -13.738281 13.671875 -14.15625 C 14.328125 -14.570312 14.859375 -15.375 15.265625 -16.5625 L 16.75 -21.140625 L 23.359375 -21.140625 L 20.90625 -14.421875 C 20.238281 -12.535156 19.335938 -11.097656 18.203125 -10.109375 L 24.296875 0 L 17.15625 0 L 12.484375 -8.0625 L 9.1875 -8.0625 L 9.1875 0 Z M 3.0625 0 "/></g></g></g><g fill="#5a1b5d" fill-opacity="1"><g transform="translate(139.863731, 201.002034)"><g><path d="M 11.484375 0.5625 C 8.742188 0.5625 6.585938 -0.300781 5.015625 -2.03125 C 3.441406 -3.757812 2.65625 -6.085938 2.65625 -9.015625 L 2.65625 -21.140625 L 8.78125 -21.140625 L 8.78125 -9.625 C 8.78125 -8.070312 9.148438 -6.863281 9.890625 -6 C 10.628906 -5.144531 11.644531 -4.71875 12.9375 -4.71875 C 14.332031 -4.71875 15.441406 -5.195312 16.265625 -6.15625 C 17.097656 -7.125 17.515625 -8.441406 17.515625 -10.109375 L 17.515625 -21.140625 L 23.640625 -21.140625 L 23.640625 0 L 19.09375 0 L 18.453125 -2.375 C 17.617188 -1.382812 16.597656 -0.644531 15.390625 -0.15625 C 14.179688 0.320312 12.878906 0.5625 11.484375 0.5625 Z M 11.484375 0.5625 "/></g></g></g><g fill="#5a1b5d" fill-opacity="1"><g transform="translate(163.012783, 201.002034)"><g><path d="M 3.0625 0 L 3.0625 -29.8125 L 9.1875 -29.8125 L 9.1875 0 Z M 3.0625 0 "/></g></g></g><g fill="#5a1b5d" fill-opacity="1"><g transform="translate(171.707492, 201.002034)"><g><path d="M 2.65625 -7.859375 L 2.65625 -12.453125 L 15.75 -12.453125 L 15.75 -7.859375 Z M 2.65625 -7.859375 "/></g></g></g><g fill="#5a1b5d" fill-opacity="1"><g transform="translate(186.602662, 201.002034)"><g><path d="M 3.390625 0 L 3.390625 -28.203125 L 14.546875 -28.203125 C 17.523438 -28.203125 20.128906 -27.609375 22.359375 -26.421875 C 24.585938 -25.242188 26.316406 -23.59375 27.546875 -21.46875 C 28.785156 -19.34375 29.40625 -16.882812 29.40625 -14.09375 C 29.40625 -11.28125 28.785156 -8.816406 27.546875 -6.703125 C 26.316406 -4.597656 24.585938 -2.953125 22.359375 -1.765625 C 20.128906 -0.585938 17.523438 0 14.546875 0 Z M 9.78125 -5.875 L 14.421875 -5.875 C 16.085938 -5.875 17.550781 -6.21875 18.8125 -6.90625 C 20.070312 -7.59375 21.054688 -8.550781 21.765625 -9.78125 C 22.484375 -11.019531 22.84375 -12.457031 22.84375 -14.09375 C 22.84375 -15.757812 22.484375 -17.203125 21.765625 -18.421875 C 21.054688 -19.648438 20.0625 -20.601562 18.78125 -21.28125 C 17.507812 -21.96875 16.03125 -22.3125 14.34375 -22.3125 L 9.78125 -22.3125 Z M 9.78125 -5.875 "/></g></g></g><g fill="#5a1b5d" fill-opacity="1"><g transform="translate(214.140342, 201.002034)"><g><path d="M 10.109375 0.40625 C 7.609375 0.40625 5.632812 -0.175781 4.1875 -1.34375 C 2.738281 -2.519531 2.015625 -4.125 2.015625 -6.15625 C 2.015625 -8.125 2.664062 -9.691406 3.96875 -10.859375 C 5.269531 -12.023438 7.019531 -12.609375 9.21875 -12.609375 L 16.875 -12.609375 L 16.875 -13.578125 C 16.875 -14.617188 16.5 -15.453125 15.75 -16.078125 C 15 -16.710938 14.019531 -17.03125 12.8125 -17.03125 C 11.8125 -17.03125 10.960938 -16.800781 10.265625 -16.34375 C 9.566406 -15.894531 9.125 -15.296875 8.9375 -14.546875 L 3.0625 -14.546875 C 3.4375 -16.847656 4.472656 -18.617188 6.171875 -19.859375 C 7.878906 -21.097656 10.078125 -21.71875 12.765625 -21.71875 C 15.929688 -21.71875 18.40625 -20.914062 20.1875 -19.3125 C 21.976562 -17.71875 22.875 -15.523438 22.875 -12.734375 L 22.875 0 L 18.328125 0 L 17.640625 -2.453125 C 15.785156 -0.546875 13.273438 0.40625 10.109375 0.40625 Z M 8.0625 -6.40625 C 8.0625 -5.675781 8.375 -5.085938 9 -4.640625 C 9.632812 -4.203125 10.472656 -3.984375 11.515625 -3.984375 C 13.046875 -3.984375 14.316406 -4.425781 15.328125 -5.3125 C 16.335938 -6.195312 16.867188 -7.351562 16.921875 -8.78125 L 11.125 -8.78125 C 10.207031 -8.78125 9.46875 -8.566406 8.90625 -8.140625 C 8.34375 -7.710938 8.0625 -7.132812 8.0625 -6.40625 Z M 8.0625 -6.40625 "/></g></g></g><g fill="#5a1b5d" fill-opacity="1"><g transform="translate(236.121777, 201.002034)"><g><path d="M 13.25 0 C 10.5625 0 8.5 -0.691406 7.0625 -2.078125 C 5.632812 -3.460938 4.921875 -5.441406 4.921875 -8.015625 L 4.921875 -16.15625 L 0.8125 -16.15625 L 0.8125 -21.140625 L 2.703125 -21.140625 C 3.859375 -21.140625 4.640625 -21.328125 5.046875 -21.703125 C 5.460938 -22.085938 5.753906 -22.816406 5.921875 -23.890625 L 6.28125 -26.625 L 11.03125 -26.625 L 11.03125 -21.140625 L 16.84375 -21.140625 L 16.84375 -16.15625 L 11.03125 -16.15625 L 11.03125 -8.9375 C 11.03125 -6.519531 12.210938 -5.3125 14.578125 -5.3125 L 17.125 -5.3125 L 17.125 0 Z M 13.25 0 "/></g></g></g><g fill="#5a1b5d" fill-opacity="1"><g transform="translate(251.379313, 201.002034)"><g><path d="M 10.109375 0.40625 C 7.609375 0.40625 5.632812 -0.175781 4.1875 -1.34375 C 2.738281 -2.519531 2.015625 -4.125 2.015625 -6.15625 C 2.015625 -8.125 2.664062 -9.691406 3.96875 -10.859375 C 5.269531 -12.023438 7.019531 -12.609375 9.21875 -12.609375 L 16.875 -12.609375 L 16.875 -13.578125 C 16.875 -14.617188 16.5 -15.453125 15.75 -16.078125 C 15 -16.710938 14.019531 -17.03125 12.8125 -17.03125 C 11.8125 -17.03125 10.960938 -16.800781 10.265625 -16.34375 C 9.566406 -15.894531 9.125 -15.296875 8.9375 -14.546875 L 3.0625 -14.546875 C 3.4375 -16.847656 4.472656 -18.617188 6.171875 -19.859375 C 7.878906 -21.097656 10.078125 -21.71875 12.765625 -21.71875 C 15.929688 -21.71875 18.40625 -20.914062 20.1875 -19.3125 C 21.976562 -17.71875 22.875 -15.523438 22.875 -12.734375 L 22.875 0 L 18.328125 0 L 17.640625 -2.453125 C 15.785156 -0.546875 13.273438 0.40625 10.109375 0.40625 Z M 8.0625 -6.40625 C 8.0625 -5.675781 8.375 -5.085938 9 -4.640625 C 9.632812 -4.203125 10.472656 -3.984375 11.515625 -3.984375 C 13.046875 -3.984375 14.316406 -4.425781 15.328125 -5.3125 C 16.335938 -6.195312 16.867188 -7.351562 16.921875 -8.78125 L 11.125 -8.78125 C 10.207031 -8.78125 9.46875 -8.566406 8.90625 -8.140625 C 8.34375 -7.710938 8.0625 -7.132812 8.0625 -6.40625 Z M 8.0625 -6.40625 "/></g></g></g><path stroke-linecap="butt" transform="matrix(-0.582413, 0, 0, -0.582413, 290.988765, 164.388652)" fill="none" stroke-linejoin="miter" d="M 0.000831268 5.000039 L 84.435339 5.000039 " stroke="#5a1b5d" stroke-width="10" stroke-opacity="1" stroke-miterlimit="4"/><path stroke-linecap="butt" transform="matrix(0, -0.582413, 0.582413, 0, 285.167623, 208.336539)" fill="none" stroke-linejoin="miter" d="M 0.00103298 4.997313 L 82.46368 4.997313 " stroke="#5a1b5d" stroke-width="10" stroke-opacity="1" stroke-miterlimit="4"/><path stroke-linecap="butt" transform="matrix(0.582413, 0, 0, 0.582413, 82.719133, 227.408363)" fill="none" stroke-linejoin="miter" d="M -0.000658412 4.999798 L 84.433849 4.999798 " stroke="#5a1b5d" stroke-width="10" stroke-opacity="1" stroke-miterlimit="4"/><path stroke-linecap="butt" transform="matrix(0, 0.582413, -0.582413, 0, 88.540275, 183.46049)" fill="none" stroke-linejoin="miter" d="M 0.000767749 4.998803 L 82.463415 4.998803 " stroke="#5a1b5d" stroke-width="10" stroke-opacity="1" stroke-miterlimit="4"/></svg>