<svg xmlns="http://www.w3.org/2000/svg" xmlns:xlink="http://www.w3.org/1999/xlink" width="500" zoomAndPan="magnify" viewBox="0 0 375 374.999991" height="500" preserveAspectRatio="xMidYMid meet" version="1.2"><defs><clipPath id="0f615b181f"><path d="M 275 151 L 296 151 L 296 172 L 275 172 Z M 275 151 "/></clipPath><clipPath id="265f9c85c2"><path d="M 270.964844 155.488281 L 284.960938 140.855469 L 306.640625 161.589844 L 292.644531 176.226562 Z M 270.964844 155.488281 "/></clipPath><clipPath id="eebd06b2b5"><path d="M 270.964844 155.488281 L 284.960938 140.855469 L 306.640625 161.589844 L 292.644531 176.226562 Z M 270.964844 155.488281 "/></clipPath></defs><g id="deac2d11b7"><g clip-rule="nonzero" clip-path="url(#0f615b181f)"><g clip-rule="nonzero" clip-path="url(#265f9c85c2)"><g clip-rule="nonzero" clip-path="url(#eebd06b2b5)"><path style=" stroke:none;fill-rule:nonzero;fill:#9440dd;fill-opacity:1;" d="M 295.824219 151.507812 L 277.890625 151.816406 C 274.425781 151.875 274.257812 158.640625 278.359375 158.5 L 289.507812 158.113281 L 289.347656 169.367188 C 289.296875 172.792969 295.972656 172.742188 295.945312 169.265625 Z M 295.824219 151.507812 "/></g></g></g><g style="fill:#5a1b5b;fill-opacity:1;"><g transform="translate(83.741594, 204.310635)"><path style="stroke:none" d="M 4.5 0 L 4.5 -37.5625 L 11.75 -37.5625 L 28.328125 -14.703125 L 28.328125 -37.5625 L 36.8125 -37.5625 L 36.8125 0 L 29.5625 0 L 12.984375 -23.015625 L 12.984375 0 Z M 4.5 0 "/></g></g><g style="fill:#5a1b5b;fill-opacity:1;"><g transform="translate(123.020667, 204.310635)"><path style="stroke:none" d="M 17.390625 0.75 C 14.378906 0.75 11.71875 0.125 9.40625 -1.125 C 7.101562 -2.375 5.304688 -4.117188 4.015625 -6.359375 C 2.734375 -8.597656 2.09375 -11.179688 2.09375 -14.109375 C 2.09375 -17.046875 2.742188 -19.625 4.046875 -21.84375 C 5.359375 -24.0625 7.164062 -25.796875 9.46875 -27.046875 C 11.78125 -28.296875 14.453125 -28.921875 17.484375 -28.921875 C 20.710938 -28.921875 23.492188 -28.203125 25.828125 -26.765625 C 28.171875 -25.335938 29.957031 -23.335938 31.1875 -20.765625 C 32.425781 -18.191406 32.957031 -15.1875 32.78125 -11.75 L 10.1875 -11.75 C 10.582031 -9.820312 11.441406 -8.347656 12.765625 -7.328125 C 14.085938 -6.304688 15.679688 -5.796875 17.546875 -5.796875 C 18.898438 -5.796875 20.140625 -6.050781 21.265625 -6.5625 C 22.398438 -7.082031 23.304688 -7.8125 23.984375 -8.75 L 32.25 -8.75 C 31.03125 -5.78125 29.113281 -3.453125 26.5 -1.765625 C 23.894531 -0.0859375 20.859375 0.75 17.390625 0.75 Z M 10.25 -16.90625 L 24.890625 -16.90625 C 24.429688 -18.625 23.566406 -19.972656 22.296875 -20.953125 C 21.023438 -21.929688 19.441406 -22.421875 17.546875 -22.421875 C 15.753906 -22.421875 14.207031 -21.929688 12.90625 -20.953125 C 11.601562 -19.972656 10.71875 -18.625 10.25 -16.90625 Z M 10.25 -16.90625 "/></g></g><g style="fill:#5a1b5b;fill-opacity:1;"><g transform="translate(155.806866, 204.310635)"><path style="stroke:none" d="M 1.28125 0 L 11.328125 -14.328125 L 1.71875 -28.171875 L 10.953125 -28.171875 L 16.421875 -19.859375 L 19.046875 -23.875 L 21.953125 -28.171875 L 31.171875 -28.171875 L 21.625 -14.328125 L 31.609375 0 L 22.21875 0 L 19.15625 -4.5 L 16.46875 -8.53125 L 13.734375 -4.5 L 10.671875 0 Z M 1.28125 0 "/></g></g><g style="fill:#5a1b5b;fill-opacity:1;"><g transform="translate(186.661303, 204.310635)"><path style="stroke:none" d="M 13.46875 0.53125 C 10.144531 0.53125 7.515625 -0.242188 5.578125 -1.796875 C 3.648438 -3.347656 2.6875 -5.484375 2.6875 -8.203125 C 2.6875 -10.816406 3.550781 -12.898438 5.28125 -14.453125 C 7.019531 -16.015625 9.351562 -16.796875 12.28125 -16.796875 L 22.484375 -16.796875 L 22.484375 -18.078125 C 22.484375 -19.472656 21.984375 -20.59375 20.984375 -21.4375 C 19.984375 -22.28125 18.675781 -22.703125 17.0625 -22.703125 C 15.738281 -22.703125 14.609375 -22.394531 13.671875 -21.78125 C 12.742188 -21.175781 12.15625 -20.375 11.90625 -19.375 L 4.078125 -19.375 C 4.578125 -22.445312 5.960938 -24.804688 8.234375 -26.453125 C 10.503906 -28.097656 13.429688 -28.921875 17.015625 -28.921875 C 21.234375 -28.921875 24.53125 -27.851562 26.90625 -25.71875 C 29.289062 -23.59375 30.484375 -20.671875 30.484375 -16.953125 L 30.484375 0 L 24.40625 0 L 23.5 -3.265625 C 21.03125 -0.734375 17.6875 0.53125 13.46875 0.53125 Z M 10.734375 -8.53125 C 10.734375 -7.5625 11.148438 -6.78125 11.984375 -6.1875 C 12.828125 -5.601562 13.945312 -5.3125 15.34375 -5.3125 C 17.382812 -5.3125 19.070312 -5.898438 20.40625 -7.078125 C 21.75 -8.265625 22.457031 -9.804688 22.53125 -11.703125 L 14.8125 -11.703125 C 13.59375 -11.703125 12.609375 -11.414062 11.859375 -10.84375 C 11.109375 -10.269531 10.734375 -9.5 10.734375 -8.53125 Z M 10.734375 -8.53125 "/></g></g><g style="fill:#5a1b5b;fill-opacity:1;"><g transform="translate(218.642606, 204.310635)"><path style="stroke:none" d="M 4.5 0 L 4.5 -37.5625 L 29.1875 -37.5625 L 29.1875 -30.375 L 12.984375 -30.375 L 12.984375 -22.59375 L 27.734375 -22.59375 L 27.734375 -15.453125 L 12.984375 -15.453125 L 12.984375 -7.25 L 29.78125 -7.25 L 29.78125 0 Z M 4.5 0 "/></g></g><g style="fill:#5a1b5b;fill-opacity:1;"><g transform="translate(249.121425, 204.310635)"><path style="stroke:none" d="M 16.421875 0.75 C 13.628906 0.75 11.160156 0.113281 9.015625 -1.15625 C 6.867188 -2.425781 5.175781 -4.175781 3.9375 -6.40625 C 2.707031 -8.644531 2.09375 -11.210938 2.09375 -14.109375 C 2.09375 -17.003906 2.707031 -19.5625 3.9375 -21.78125 C 5.175781 -24 6.867188 -25.742188 9.015625 -27.015625 C 11.160156 -28.285156 13.628906 -28.921875 16.421875 -28.921875 C 18.171875 -28.921875 19.796875 -28.660156 21.296875 -28.140625 C 22.804688 -27.617188 24.164062 -26.894531 25.375 -25.96875 L 25.375 -39.703125 L 33.53125 -39.703125 L 33.53125 0 L 27.46875 0 L 26.5 -3.21875 C 25.25 -1.96875 23.765625 -0.992188 22.046875 -0.296875 C 20.335938 0.398438 18.460938 0.75 16.421875 0.75 Z M 10.140625 -14.109375 C 10.140625 -11.816406 10.863281 -9.9375 12.3125 -8.46875 C 13.757812 -7.007812 15.628906 -6.28125 17.921875 -6.28125 C 20.210938 -6.28125 22.070312 -7.007812 23.5 -8.46875 C 24.925781 -9.9375 25.640625 -11.816406 25.640625 -14.109375 C 25.640625 -16.398438 24.925781 -18.28125 23.5 -19.75 C 22.070312 -21.21875 20.210938 -21.953125 17.921875 -21.953125 C 15.628906 -21.953125 13.757812 -21.21875 12.3125 -19.75 C 10.863281 -18.28125 10.140625 -16.398438 10.140625 -14.109375 Z M 10.140625 -14.109375 "/></g></g></g></svg>