<svg xmlns="http://www.w3.org/2000/svg" xmlns:xlink="http://www.w3.org/1999/xlink" width="500" zoomAndPan="magnify" viewBox="0 0 375 374.999991" height="500" preserveAspectRatio="xMidYMid meet" version="1.0"><defs><g/><clipPath id="7475638c81"><path d="M 287 158 L 309 158 L 309 180 L 287 180 Z M 287 158 " clip-rule="nonzero"/></clipPath><clipPath id="12ed789da3"><path d="M 283.445312 162.539062 L 297.441406 147.902344 L 319.121094 168.640625 L 305.125 183.273438 Z M 283.445312 162.539062 " clip-rule="nonzero"/></clipPath><clipPath id="b592c5675d"><path d="M 283.445312 162.539062 L 297.441406 147.902344 L 319.121094 168.640625 L 305.125 183.273438 Z M 283.445312 162.539062 " clip-rule="nonzero"/></clipPath></defs><g clip-path="url(#7475638c81)"><g clip-path="url(#12ed789da3)"><g clip-path="url(#b592c5675d)"><path fill="#5a1b5b" d="M 308.449219 158.53125 L 290.410156 158.84375 C 286.925781 158.902344 286.757812 165.707031 290.882812 165.566406 L 302.09375 165.179688 L 301.933594 176.496094 C 301.886719 179.941406 308.597656 179.890625 308.574219 176.390625 Z M 308.449219 158.53125 " fill-opacity="1" fill-rule="nonzero"/></g></g></g><g fill="#5a1b5b" fill-opacity="1"><g transform="translate(72.175538, 204.713879)"><g><path d="M 15.296875 0.65625 C 12.566406 0.65625 10.210938 0.207031 8.234375 -0.6875 C 6.253906 -1.59375 4.726562 -2.878906 3.65625 -4.546875 C 2.582031 -6.210938 2.046875 -8.164062 2.046875 -10.40625 L 9.328125 -10.40625 C 9.328125 -8.851562 9.863281 -7.640625 10.9375 -6.765625 C 12.007812 -5.890625 13.445312 -5.453125 15.25 -5.453125 C 16.8125 -5.453125 18.039062 -5.753906 18.9375 -6.359375 C 19.84375 -6.972656 20.296875 -7.820312 20.296875 -8.90625 C 20.296875 -10.0625 19.75 -10.992188 18.65625 -11.703125 C 17.570312 -12.421875 15.878906 -13.03125 13.578125 -13.53125 C 9.753906 -14.34375 6.921875 -15.570312 5.078125 -17.21875 C 3.242188 -18.863281 2.328125 -21.007812 2.328125 -23.65625 C 2.328125 -26.644531 3.414062 -29 5.59375 -30.71875 C 7.769531 -32.445312 10.742188 -33.3125 14.515625 -33.3125 C 17.085938 -33.3125 19.320312 -32.867188 21.21875 -31.984375 C 23.125 -31.097656 24.597656 -29.851562 25.640625 -28.25 C 26.679688 -26.644531 27.203125 -24.738281 27.203125 -22.53125 L 20.0625 -22.53125 C 20.0625 -24 19.578125 -25.148438 18.609375 -25.984375 C 17.648438 -26.828125 16.316406 -27.25 14.609375 -27.25 C 13.046875 -27.25 11.8125 -26.941406 10.90625 -26.328125 C 10.007812 -25.722656 9.5625 -24.878906 9.5625 -23.796875 C 9.5625 -22.796875 10.054688 -21.953125 11.046875 -21.265625 C 12.046875 -20.585938 13.789062 -19.953125 16.28125 -19.359375 C 20.351562 -18.398438 23.289062 -17.109375 25.09375 -15.484375 C 26.90625 -13.867188 27.8125 -11.769531 27.8125 -9.1875 C 27.8125 -6.113281 26.695312 -3.703125 24.46875 -1.953125 C 22.25 -0.210938 19.191406 0.65625 15.296875 0.65625 Z M 15.296875 0.65625 "/></g></g></g><g fill="#5a1b5b" fill-opacity="1"><g transform="translate(100.30651, 204.713879)"><g><path d="M 3.546875 0 L 3.546875 -34.53125 L 10.640625 -34.53125 L 10.640625 -15.671875 L 12.453125 -15.671875 C 13.953125 -15.671875 15.082031 -15.910156 15.84375 -16.390625 C 16.601562 -16.878906 17.21875 -17.804688 17.6875 -19.171875 L 19.40625 -24.5 L 27.0625 -24.5 L 24.21875 -16.703125 C 23.4375 -14.523438 22.394531 -12.859375 21.09375 -11.703125 L 28.140625 0 L 19.875 0 L 14.46875 -9.328125 L 10.640625 -9.328125 L 10.640625 0 Z M 3.546875 0 "/></g></g></g><g fill="#5a1b5b" fill-opacity="1"><g transform="translate(127.877648, 204.713879)"><g><path d="M 13.296875 0.65625 C 10.117188 0.65625 7.617188 -0.34375 5.796875 -2.34375 C 3.984375 -4.351562 3.078125 -7.054688 3.078125 -10.453125 L 3.078125 -24.5 L 10.171875 -24.5 L 10.171875 -11.15625 C 10.171875 -9.34375 10.597656 -7.9375 11.453125 -6.9375 C 12.304688 -5.945312 13.484375 -5.453125 14.984375 -5.453125 C 16.597656 -5.453125 17.882812 -6.007812 18.84375 -7.125 C 19.8125 -8.25 20.296875 -9.773438 20.296875 -11.703125 L 20.296875 -24.5 L 27.390625 -24.5 L 27.390625 0 L 22.109375 0 L 21.375 -2.75 C 20.40625 -1.601562 19.21875 -0.75 17.8125 -0.1875 C 16.414062 0.375 14.910156 0.65625 13.296875 0.65625 Z M 13.296875 0.65625 "/></g></g></g><g fill="#5a1b5b" fill-opacity="1"><g transform="translate(157.034972, 204.713879)"><g><path d="M 3.546875 0 L 3.546875 -34.53125 L 10.640625 -34.53125 L 10.640625 0 Z M 3.546875 0 "/></g></g></g><g fill="#5a1b5b" fill-opacity="1"><g transform="translate(169.444086, 204.713879)"><g><path d="M 3.078125 -9.09375 L 3.078125 -14.421875 L 18.25 -14.421875 L 18.25 -9.09375 Z M 3.078125 -9.09375 "/></g></g></g><g fill="#5a1b5b" fill-opacity="1"><g transform="translate(189.037663, 204.713879)"><g><path d="M 3.921875 0 L 3.921875 -32.65625 L 16.84375 -32.65625 C 20.289062 -32.65625 23.304688 -31.96875 25.890625 -30.59375 C 28.472656 -29.226562 30.476562 -27.316406 31.90625 -24.859375 C 33.34375 -22.410156 34.0625 -19.566406 34.0625 -16.328125 C 34.0625 -13.066406 33.34375 -10.210938 31.90625 -7.765625 C 30.476562 -5.328125 28.472656 -3.421875 25.890625 -2.046875 C 23.304688 -0.679688 20.289062 0 16.84375 0 Z M 11.34375 -6.8125 L 16.703125 -6.8125 C 18.628906 -6.8125 20.320312 -7.207031 21.78125 -8 C 23.25 -8.789062 24.394531 -9.898438 25.21875 -11.328125 C 26.039062 -12.765625 26.453125 -14.429688 26.453125 -16.328125 C 26.453125 -18.253906 26.039062 -19.925781 25.21875 -21.34375 C 24.394531 -22.757812 23.242188 -23.863281 21.765625 -24.65625 C 20.285156 -25.445312 18.566406 -25.84375 16.609375 -25.84375 L 11.34375 -25.84375 Z M 11.34375 -6.8125 "/></g></g></g><g fill="#5a1b5b" fill-opacity="1"><g transform="translate(223.280088, 204.713879)"><g><path d="M 11.703125 0.46875 C 8.816406 0.46875 6.53125 -0.207031 4.84375 -1.5625 C 3.164062 -2.914062 2.328125 -4.773438 2.328125 -7.140625 C 2.328125 -9.410156 3.082031 -11.222656 4.59375 -12.578125 C 6.101562 -13.929688 8.132812 -14.609375 10.6875 -14.609375 L 19.546875 -14.609375 L 19.546875 -15.71875 C 19.546875 -16.9375 19.109375 -17.910156 18.234375 -18.640625 C 17.367188 -19.367188 16.238281 -19.734375 14.84375 -19.734375 C 13.6875 -19.734375 12.703125 -19.46875 11.890625 -18.9375 C 11.085938 -18.414062 10.578125 -17.71875 10.359375 -16.84375 L 3.546875 -16.84375 C 3.984375 -19.519531 5.1875 -21.570312 7.15625 -23 C 9.132812 -24.425781 11.679688 -25.140625 14.796875 -25.140625 C 18.460938 -25.140625 21.328125 -24.210938 23.390625 -22.359375 C 25.460938 -20.515625 26.5 -17.976562 26.5 -14.75 L 26.5 0 L 21.234375 0 L 20.4375 -2.84375 C 18.289062 -0.632812 15.378906 0.46875 11.703125 0.46875 Z M 9.328125 -7.421875 C 9.328125 -6.578125 9.691406 -5.898438 10.421875 -5.390625 C 11.160156 -4.878906 12.132812 -4.625 13.34375 -4.625 C 15.113281 -4.625 16.582031 -5.132812 17.75 -6.15625 C 18.914062 -7.1875 19.53125 -8.523438 19.59375 -10.171875 L 12.875 -10.171875 C 11.820312 -10.171875 10.96875 -9.921875 10.3125 -9.421875 C 9.65625 -8.921875 9.328125 -8.253906 9.328125 -7.421875 Z M 9.328125 -7.421875 "/></g></g></g><g fill="#5a1b5b" fill-opacity="1"><g transform="translate(251.084491, 204.713879)"><g><path d="M 15.34375 0 C 12.238281 0 9.851562 -0.800781 8.1875 -2.40625 C 6.519531 -4.007812 5.6875 -6.300781 5.6875 -9.28125 L 5.6875 -18.703125 L 0.9375 -18.703125 L 0.9375 -24.5 L 3.125 -24.5 C 4.457031 -24.5 5.363281 -24.710938 5.84375 -25.140625 C 6.332031 -25.578125 6.671875 -26.421875 6.859375 -27.671875 L 7.28125 -30.84375 L 12.78125 -30.84375 L 12.78125 -24.5 L 19.5 -24.5 L 19.5 -18.703125 L 12.78125 -18.703125 L 12.78125 -10.359375 C 12.78125 -7.554688 14.148438 -6.15625 16.890625 -6.15625 L 19.828125 -6.15625 L 19.828125 0 Z M 15.34375 0 "/></g></g></g><g fill="#5a1b5b" fill-opacity="1"><g transform="translate(271.097941, 204.713879)"><g><path d="M 11.703125 0.46875 C 8.816406 0.46875 6.53125 -0.207031 4.84375 -1.5625 C 3.164062 -2.914062 2.328125 -4.773438 2.328125 -7.140625 C 2.328125 -9.410156 3.082031 -11.222656 4.59375 -12.578125 C 6.101562 -13.929688 8.132812 -14.609375 10.6875 -14.609375 L 19.546875 -14.609375 L 19.546875 -15.71875 C 19.546875 -16.9375 19.109375 -17.910156 18.234375 -18.640625 C 17.367188 -19.367188 16.238281 -19.734375 14.84375 -19.734375 C 13.6875 -19.734375 12.703125 -19.46875 11.890625 -18.9375 C 11.085938 -18.414062 10.578125 -17.71875 10.359375 -16.84375 L 3.546875 -16.84375 C 3.984375 -19.519531 5.1875 -21.570312 7.15625 -23 C 9.132812 -24.425781 11.679688 -25.140625 14.796875 -25.140625 C 18.460938 -25.140625 21.328125 -24.210938 23.390625 -22.359375 C 25.460938 -20.515625 26.5 -17.976562 26.5 -14.75 L 26.5 0 L 21.234375 0 L 20.4375 -2.84375 C 18.289062 -0.632812 15.378906 0.46875 11.703125 0.46875 Z M 9.328125 -7.421875 C 9.328125 -6.578125 9.691406 -5.898438 10.421875 -5.390625 C 11.160156 -4.878906 12.132812 -4.625 13.34375 -4.625 C 15.113281 -4.625 16.582031 -5.132812 17.75 -6.15625 C 18.914062 -7.1875 19.53125 -8.523438 19.59375 -10.171875 L 12.875 -10.171875 C 11.820312 -10.171875 10.96875 -9.921875 10.3125 -9.421875 C 9.65625 -8.921875 9.328125 -8.253906 9.328125 -7.421875 Z M 9.328125 -7.421875 "/></g></g></g></svg>